#!OML:ASF E:\acrobat2\Project_11_07_03\Capture day 1\Session 1\Acrobat.ASF
:FULLY-SPECIFIED
:DEGREES
1575
root 11.1529 4.15172 10.6304 -82.5439 2.91446 168.791
lowerback -16.25610992869196 -6.813094647038064 -3.5364734580410486
upperback -8.191513146880602 -8.472698640930423 9.649643753852043
thorax 0.5642489411741177 -5.901944489930711 9.387219217536746
lowerneck -2.4198640798065907 -18.739542295263202 13.700076005413953
upperneck -31.003231590736185 -23.12460051775462 -0.051305736174670435
head -10.489927353362923 -8.574843211260072 -2.640361350820554
rclavicle 2.38542e-15 -1.58034e-14
rhumerus -1.9987473854992706 -29.75485028962805 24.877431805872764
rradius 63.80262118154301
rwrist -27.59498828756881
rhand -24.987425056079935 -37.91000865697121
rfingers 7.529223678395395
rthumb 2.4544553868328425 -68.41398619358749
lclavicle 2.38542e-15 -1.58034e-14
lhumerus -2.807033915485997 8.558198551881386 -28.441862762469135
lradius 17.083151651771026
lwrist 28.278920469571734
lhand -15.678733089742021 -31.049944034768156
lfingers 8.596799662288673
lthumb 10.33808081008842 -1.8558631735800455
rfemur 3.669862242574852 0.6673330706641223 3.1379527895828923
rtibia 51.17526608282819
rfoot 22.688259924097334 -17.105985792907138
rtoes 27.532820151590748
lfemur -10.50081873565694 -11.169503714012713 -1.574023153257198
ltibia 61.52800181388406
lfoot 43.76041589339641 7.800690974023862
ltoes 4.47688
1576
root 11.1529 4.15172 10.6304 -82.5439 2.91446 168.791
lowerback -16.217907482031645 -6.7882697838755375 -3.5959871471561087
upperback -8.135477231359314 -8.485322985408756 9.633971939108829
thorax 0.604058389379805 -5.948706348670713 9.482807507381095
lowerneck -2.507114596659902 -18.67722116568779 13.750939375803862
upperneck -30.976146139420624 -23.181399305658715 -0.13504487183705816
head -10.456388601670255 -8.49395078841332 -2.5449350762044505
rclavicle 2.38542e-15 -1.58034e-14
rhumerus 0.367104002267971 -26.885097262591568 21.92327420514613
rradius 66.69471914103168
rwrist -27.610838150815088
rhand -25.041605710372203 -37.963927046286436
rfingers 7.493517425958148
rthumb 2.512769341569668 -68.38402926056146
lclavicle 2.38542e-15 -1.58034e-14
lhumerus -5.722076440834786 6.385252488799582 -30.750866163803426
lradius 17.021726205264727
lwrist 28.25870276057739
lhand -15.740253932597927 -31.14075418039248
lfingers 8.691775282518295
lthumb 10.322926215884738 -1.7580018360271892
rfemur 3.9809138058286093 0.7361523009584782 3.525242414522742
rtibia 53.890500682152044
rfoot 22.623686225133053 -16.898670666704447
rtoes 27.998419893977925
lfemur -10.927833248146532 -11.514515622891171 -2.0712713565501324
ltibia 60.882451816602185
lfoot 43.51785671590926 8.173554001145533
ltoes 4.47688
1577
root 11.1529 4.15172 10.6304 -82.5439 2.91446 168.791
lowerback -16.179965687355413 -6.885294175690792 -3.6007747739010116
upperback -8.088339892609184 -8.571403739282772 9.713206601885117
thorax 0.5290748810096226 -6.038830635012674 9.39649018724756
lowerneck -2.4427978814053946 -18.695955733600442 13.838069964664735
upperneck -30.954703340078257 -23.212121595155093 -0.07601134393432138
head -10.461892041276164 -8.41861165777813 -2.5594581882942653
rclavicle 2.38542e-15 -1.58034e-14
rhumerus 2.3416069868098486 -27.644461337933176 18.525704713685997
rradius 64.15335815710765
rwrist -27.603343258719185
rhand -24.981237182099868 -37.95424896594777
rfingers 7.486034474432598
rthumb 2.606545438168218 -68.31263264750956
lclavicle 2.38542e-15 -1.58034e-14
lhumerus -7.028225569751525 11.013975395541637 -29.59027749872287
lradius 14.830933481674332
lwrist 28.356661735999726
lhand -15.770382534519733 -31.08601296117714
lfingers 8.637792796613734
lthumb 10.357488626459778 -1.7803887478623723
rfemur 4.330769190105555 0.4118701905881519 3.043448796599061
rtibia 52.688092627342684
rfoot 22.35836715073137 -16.986087817475887
rtoes 28.31296674495244
lfemur -10.5091428183972 -11.970771827088916 -1.7832041063993065
ltibia 59.091750101549984
lfoot 43.5070598984486 8.030617215542298
ltoes 4.47688
1578
root 11.1529 4.15172 10.6304 -82.5439 2.91446 168.791
lowerback -16.12341683476769 -6.8162884041807015 -3.6826911644913656
upperback -8.099456630426872 -8.665650638268458 9.731087834756702
thorax 0.46777472820912186 -6.116801562672042 9.448851055579098
lowerneck -2.467045568192659 -18.729523558487216 13.755727340082553
upperneck -30.904765624735948 -23.283007112987207 -0.11140028749995365
head -10.461170763214168 -8.372196091314699 -2.6021845090146
rclavicle 2.38542e-15 -1.58034e-14
rhumerus 2.9924124484627592 -28.049664553949718 19.00704534213601
rradius 62.44918301735992
rwrist -27.540925621847993
rhand -25.031939925354475 -37.92829909885626
rfingers 7.542092889383843
rthumb 2.5678663188473236 -68.25942388108805
lclavicle 2.38542e-15 -1.58034e-14
lhumerus -4.447899640858044 14.788975116007306 -28.62008962705307
lradius 16.41828164336242
lwrist 28.392283335230786
lhand -15.76815890027884 -31.14942157561142
lfingers 8.700849497343066
lthumb 10.372634605212108 -1.8329105346334353
rfemur 4.326986419572758 0.2667315786771097 2.5790058020576048
rtibia 55.390979966136776
rfoot 22.30039456135015 -17.05579339797266
rtoes 28.336180489598288
lfemur -10.107825649849596 -12.087697114827941 -1.819152704091961
ltibia 63.56368289563687
lfoot 43.79852806899697 8.221427231081059
ltoes 4.47688
1579
root 11.1529 4.15172 10.6304 -82.5439 2.91446 168.791
lowerback -16.094737231498137 -6.837937284025571 -3.7448476971110805
upperback -8.137609648141849 -8.639940591224658 9.633607568865548
thorax 0.4093336894007218 -6.025157740236296 9.473378982648445
lowerneck -2.3882097567950034 -18.796767470998066 13.767936895192916
upperneck -30.98659417138657 -23.360663907199424 -0.040532179834466
head -10.43342539137605 -8.296774772056654 -2.6984978161778836
rclavicle 2.38542e-15 -1.58034e-14
rhumerus 5.585556794090337 -23.79497279423969 16.749204439190628
rradius 59.480069918884816
rwrist -27.596785681880462
rhand -25.037482184143926 -38.01377438341373
rfingers 7.5440377448243225
rthumb 2.650258275594011 -68.18640909903867
lclavicle 2.38542e-15 -1.58034e-14
lhumerus -7.288630528430948 13.31632729937957 -24.954846256800543
lradius 14.710706412267076
lwrist 28.312714386751413
lhand -15.830758351923214 -31.19114123392278
lfingers 8.733866067468753
lthumb 10.467546416919724 -1.7798410686969972
rfemur 4.228301967391419 0.5249744678809976 2.2549140582766087
rtibia 58.104045638972615
rfoot 22.099742874459427 -17.154049207786695
rtoes 28.543571267910618
lfemur -10.399428671313242 -12.416377295882437 -2.0003559820463783
ltibia 59.38167285274008
lfoot 43.31102735569109 8.187015332545775
ltoes 4.47688
1580
root 11.1529 4.15172 10.6304 -82.5439 2.91446 168.791
lowerback -16.033811959594846 -6.752612721659009 -3.774592530621713
upperback -8.09855223331398 -8.568203609584035 9.646564801697897
thorax 0.45331518345325805 -6.109104023778093 9.506993103168869
lowerneck -2.3381059008836766 -18.76144188734686 13.78931784700338
upperneck -31.010804360063318 -23.35297276044388 -0.09019660910731422
head -10.361174946247326 -8.373873585451642 -2.601949808968927
rclavicle 2.38542e-15 -1.58034e-14
rhumerus 6.91665451011221 -20.367741477315704 14.60757118068135
rradius 57.72280722322758
rwrist -27.533862211339688
rhand -24.974199455663044 -37.93292087122874
rfingers 7.461272563208594
rthumb 2.648081865704693 -68.10894642232329
lclavicle 2.38542e-15 -1.58034e-14
lhumerus -7.244924881438342 14.001616041366066 -23.579752488543626
lradius 12.658361198034378
lwrist 28.235991079572795
lhand -15.738722114424828 -31.285525317245543
lfingers 8.665381859504423
lthumb 10.444494502476507 -1.814001121769448
rfemur 4.29063125788023 0.9396540649896651 1.8368978103553415
rtibia 57.344188259159445
rfoot 21.99195285502868 -17.56461783204156
rtoes 28.82839343280973
lfemur -10.848908890484523 -12.410141122157405 -2.098822669642992
ltibia 59.26812236102958
lfoot 43.537730761085946 8.678137947301584
ltoes 4.47688
1581
root 11.1529 4.15172 10.6304 -82.5439 2.91446 168.791
lowerback -15.981975589816276 -6.686254161345964 -3.768039113498243
upperback -8.132587187931644 -8.570311355688132 9.61467302065028
thorax 0.48695014017416205 -6.014864216785423 9.60035617726398
lowerneck -2.418480432544787 -18.74528225660497 13.714322932358526
upperneck -30.92041557492653 -23.438213074608694 -0.180686345606336
head -10.387755736596617 -8.306301284089255 -2.5536009183012784
rclavicle 2.38542e-15 -1.58034e-14
rhumerus 5.591418621064232 -24.132925312633727 18.814933792572642
rradius 58.09852076683209
rwrist -27.483871450863315
rhand -24.88747256830708 -37.89791314607711
rfingers 7.552835724556091
rthumb 2.7060937636761824 -68.07063678542761
lclavicle 2.38542e-15 -1.58034e-14
lhumerus -9.520566132424573 12.716828660535036 -23.020398708675785
lradius 11.613490299516878
lwrist 28.23117795574589
lhand -15.789908228644132 -31.206762803446747
lfingers 8.738227285105879
lthumb 10.435292116616331 -1.749163807181258
rfemur 3.980337191181664 0.8744020763560977 1.5886634331975498
rtibia 62.083586902319084
rfoot 21.83973932288868 -17.542110631215323
rtoes 28.619208517196167
lfemur -11.18353812112661 -12.444380868869992 -1.6805207705044172
ltibia 60.03768735785804
lfoot 43.09168567423913 8.48258368047278
ltoes 4.47688
1582
root 11.1529 4.15172 10.6304 -82.5439 2.91446 168.791
lowerback -16.02248588494943 -6.745222653567925 -3.6756526893384014
upperback -8.155208214063475 -8.660740506325755 9.634409905453598
thorax 0.4176020331778595 -6.008781804894987 9.61457299331685
lowerneck -2.3613593040697745 -18.792612862031415 13.63086092406576
upperneck -30.99187491902403 -23.515817854053928 -0.23421409865305803
head -10.377128092734496 -8.311075137855976 -2.6416307692135987
rclavicle 2.38542e-15 -1.58034e-14
rhumerus 4.56850056248169 -28.143935579045802 16.82405789658817
rradius 58.08278988886149
rwrist -27.486695438585993
rhand -24.857022678767677 -37.8150380423431
rfingers 7.620202030517512
rthumb 2.746230035434533 -67.9786832775925
lclavicle 2.38542e-15 -1.58034e-14
lhumerus -8.466842958511133 16.208781799609007 -18.97420291843831
lradius 12.808889211353353
lwrist 28.224235774325138
lhand -15.719316883381358 -31.15378329642369
lfingers 8.712319581027252
lthumb 10.416940821649906 -1.6512098602288667
rfemur 3.92605059221965 0.781008953694356 1.5111350377166899
rtibia 60.33981635205869
rfoot 22.31902333492853 -17.318915083171042
rtoes 28.324571222041957
lfemur -11.181920617149771 -12.348765015430297 -1.3222750054352277
ltibia 56.534287940645854
lfoot 42.674842742958646 8.312710460791136
ltoes 4.47688
1583
root 11.1529 4.15172 10.6304 -82.5439 2.91446 168.791
lowerback -15.945332046539697 -6.681158829839695 -3.770767155282703
upperback -8.121762202470709 -8.660277487628596 9.713771595317345
thorax 0.4838874272363908 -5.915180847317527 9.608299562109037
lowerneck -2.2644635746104074 -18.825051353201417 13.559332705522236
upperneck -31.067543132269517 -23.48841594744215 -0.19753674181472144
head -10.319931191569838 -8.329044233200278 -2.714452284589474
rclavicle 2.38542e-15 -1.58034e-14
rhumerus 4.938393066365347 -29.34213261316171 18.964775307916728
rradius 55.44960565228686
rwrist -27.537254838532554
rhand -24.770820085195112 -37.771037245641814
rfingers 7.7163798598196776
rthumb 2.8327817385341216 -68.0067737260134
lclavicle 2.38542e-15 -1.58034e-14
lhumerus -10.77775691741768 12.111561951421788 -15.500471662122877
lradius 12.744375099244815
lwrist 28.295836778526287
lhand -15.782096478839597 -31.216093080284036
lfingers 8.77599487747154
lthumb 10.384199987953789 -1.5665497063990106
rfemur 4.195531087572392 1.2051446494355726 1.2784583259514402
rtibia 56.81828779890381
rfoot 22.603390622114265 -17.589794122608307
rtoes 28.477359489179953
lfemur -11.192089765512792 -12.455726737092904 -1.3189335271946323
ltibia 61.05719128592502
lfoot 42.420351692654855 8.727495383150865
ltoes 4.47688
